<svg width="44" height="40" viewBox="0 0 44 40" fill="none" xmlns="http://www.w3.org/2000/svg">
<path d="M41.6583 8.57036H2.0767C0.941654 8.54202 0.0316162 7.61532 0.0316162 6.47527C0.0316162 6.45694 0.0316162 6.4386 0.0316162 6.42027V6.4236V2.14176C0.0316162 2.12842 0.0316162 2.11175 0.0316162 2.09509C0.0316162 0.95504 0.941654 0.0283345 2.07337 0H2.0767H41.6583C42.7934 0.025001 43.7034 0.950039 43.7034 2.08842V2.14509V2.14176V6.4236C43.7034 6.4436 43.7051 6.46527 43.7051 6.4886C43.7051 7.62532 42.7951 8.55036 41.6634 8.57202H41.6617L41.6583 8.57036ZM41.8734 37.8566V13.5722C41.8734 13.5689 41.8734 13.5656 41.8734 13.5622C41.8734 12.3838 40.9183 11.4288 39.7399 11.4288C39.7366 11.4288 39.7333 11.4288 39.7299 11.4288H4.01512C4.01178 11.4288 4.00845 11.4288 4.00512 11.4288C2.82673 11.4288 1.87169 12.3838 1.87169 13.5622V13.5722V37.8566V37.8666C1.87169 39.045 2.82673 40 4.00512 40H4.01512H39.7299C40.9133 40 41.8717 39.04 41.8734 37.8566ZM26.5161 22.8559H17.234C16.6473 22.8509 16.1723 22.3759 16.1673 21.7892V21.0642C16.1723 20.4775 16.6473 20.0025 17.234 19.9975H26.5194C27.1061 20.0025 27.5811 20.4775 27.5861 21.0642V21.7776V21.7809C27.5861 22.3726 27.1077 22.8526 26.5161 22.8559Z" fill="#EBEBEB"/>
</svg>
