<svg width="55" height="40" viewBox="0 0 55 40" fill="none" xmlns="http://www.w3.org/2000/svg">
<path d="M27.6542 11.1558C28.4542 11.2933 29.0384 11.9867 29.0384 12.7983V15.535C29.0384 16.3467 28.4542 17.04 27.6542 17.1775L25.1359 17.6108C24.9767 18.0858 24.7834 18.5433 24.5626 18.9867L26.0384 21.0767C26.5067 21.7392 26.4292 22.6433 25.8559 23.2167L23.9209 25.1517C23.3476 25.7258 22.4434 25.8025 21.7809 25.3342L19.6909 23.8583C19.2484 24.0792 18.7901 24.2725 18.3159 24.4317L17.8826 26.9492C17.7451 27.7492 17.0517 28.3333 16.2401 28.3333H13.5034C12.6917 28.3333 11.9984 27.7492 11.8609 26.9492L11.4276 24.4317C10.9526 24.2725 10.4951 24.0792 10.0526 23.8583L7.96258 25.3342C7.30008 25.8025 6.39591 25.725 5.82258 25.1517L3.88674 23.2167C3.31258 22.6433 3.23591 21.7392 3.70424 21.0767L5.18008 18.9867C4.95924 18.5442 4.76591 18.0858 4.60674 17.6108L2.08841 17.1775C1.28924 17.04 0.705078 16.3467 0.705078 15.535V12.7983C0.705078 11.9867 1.28924 11.2933 2.08924 11.1558L4.60758 10.7225C4.76674 10.2475 4.96008 9.79 5.18091 9.3475L3.70508 7.2575C3.23674 6.595 3.31424 5.69083 3.88758 5.1175L5.82258 3.1825C6.39591 2.60917 7.30008 2.53167 7.96258 3L10.0526 4.47583C10.4951 4.255 10.9534 4.06167 11.4276 3.9025L11.8609 1.38417C11.9984 0.584167 12.6917 0 13.5034 0H16.2401C17.0517 0 17.7451 0.584167 17.8826 1.38417L18.3159 3.9025C18.7901 4.06167 19.2484 4.255 19.6909 4.47583L21.7809 3C22.4434 2.53167 23.3476 2.60917 23.9209 3.1825L25.8559 5.1175C26.4301 5.69167 26.5067 6.595 26.0384 7.2575L24.5626 9.3475C24.7834 9.79 24.9767 10.2483 25.1359 10.7225L27.6542 11.1558ZM14.8717 19.1667C17.6334 19.1667 19.8717 16.9283 19.8717 14.1667C19.8717 11.405 17.6334 9.16667 14.8717 9.16667C12.1101 9.16667 9.87174 11.405 9.87174 14.1667C9.87174 16.9283 12.1101 19.1667 14.8717 19.1667ZM52.6542 24.9058C53.4542 25.0433 54.0384 25.7367 54.0384 26.5483V28.4517C54.0384 29.2633 53.4542 29.9567 52.6542 30.0942L51.1184 30.3583C50.9209 31.0217 50.6601 31.6583 50.3367 32.2558L51.2334 33.525C51.7017 34.1875 51.6242 35.0917 51.0509 35.665L49.7051 37.0108C49.1309 37.585 48.2276 37.6617 47.5651 37.1933L46.2959 36.2967C45.6984 36.6208 45.0617 36.8808 44.3984 37.0783L44.1342 38.6142C43.9951 39.4158 43.3017 40 42.4901 40H40.5867C39.7751 40 39.0817 39.4158 38.9442 38.6158L38.6801 37.08C38.0167 36.8825 37.3801 36.6217 36.7826 36.2983L35.5134 37.195C34.8509 37.6633 33.9476 37.5858 33.3734 37.0125L32.0276 35.6667C31.4534 35.0933 31.3767 34.1892 31.8451 33.5267L32.7417 32.2575C32.4176 31.66 32.1576 31.0233 31.9601 30.36L30.4242 30.0958C29.6226 29.9567 29.0384 29.2633 29.0384 28.4517V26.5483C29.0384 25.7367 29.6226 25.0433 30.4226 24.9058L31.9584 24.6417C32.1559 23.9783 32.4167 23.3417 32.7401 22.7442L31.8434 21.475C31.3751 20.8125 31.4526 19.9083 32.0259 19.335L33.3717 17.9892C33.9459 17.4158 34.8492 17.3383 35.5117 17.8067L36.7809 18.7033C37.3784 18.3792 38.0151 18.1192 38.6784 17.9217L38.9426 16.3858C39.0817 15.5842 39.7751 15 40.5867 15H42.4901C43.3017 15 43.9951 15.5842 44.1326 16.3842L44.3967 17.92C45.0601 18.1175 45.6967 18.3783 46.2942 18.7017L47.5634 17.805C48.2259 17.3367 49.1292 17.4142 49.7034 17.9875L51.0492 19.3333C51.6234 19.9067 51.7001 20.8108 51.2317 21.4733L50.3351 22.7425C50.6592 23.34 50.9192 23.9767 51.1167 24.64L52.6542 24.9058ZM41.5384 31.6667C43.8392 31.6667 45.7051 29.8008 45.7051 27.5C45.7051 25.1992 43.8392 23.3333 41.5384 23.3333C39.2376 23.3333 37.3717 25.1992 37.3717 27.5C37.3717 29.8008 39.2376 31.6667 41.5384 31.6667Z" fill="#EBEBEB"/>
</svg>
