<svg version="1.1" id="Layer_1" xmlns="http://www.w3.org/2000/svg" xmlns:xlink="http://www.w3.org/1999/xlink" x="0px" y="0px"
	 width="100%" viewBox="0 0 400 400" enable-background="new 0 0 400 400" xml:space="preserve">
<path fill="#141414" opacity="1.000000" stroke="none" 
	d="
M264.000000,401.000000 
	C176.000000,401.000000 88.500000,401.000000 1.000000,401.000000 
	C1.000000,267.666656 1.000000,134.333328 1.000000,1.000000 
	C134.333328,1.000000 267.666656,1.000000 401.000000,1.000000 
	C401.000000,134.333328 401.000000,267.666656 401.000000,401.000000 
	C355.500000,401.000000 310.000000,401.000000 264.000000,401.000000 
M132.443359,338.361603 
	C142.945984,342.239197 151.929321,340.184570 158.993423,331.789520 
	C161.972015,328.249756 164.484573,324.256561 166.812378,320.239655 
	C198.112778,266.226654 229.438828,212.227997 260.541107,158.100876 
	C272.064636,138.046509 283.315735,117.821907 294.114105,97.370308 
	C299.552551,87.070076 295.327850,75.920685 284.866333,69.534698 
	C274.916382,63.460991 263.928162,65.229233 256.773590,74.387634 
	C253.194534,78.969093 249.816055,83.769890 246.887756,88.787170 
	C222.804764,130.050323 198.784332,171.350342 174.875931,212.714920 
	C157.215469,243.269745 139.532211,273.815430 122.298515,304.611115 
	C114.480156,318.582092 118.095901,329.817230 132.443359,338.361603 
M343.799774,225.710083 
	C346.576477,224.634476 349.594818,223.950119 352.085663,222.411682 
	C360.369385,217.295303 364.065491,207.098083 361.447662,197.562866 
	C358.471130,186.721130 350.153168,180.398270 338.099274,180.265167 
	C320.939636,180.075684 303.776398,179.997192 286.616425,180.116058 
	C272.160309,180.216156 260.077698,185.918869 252.276230,198.115585 
	C242.690826,213.101364 233.658722,228.491348 225.284882,244.185471 
	C218.883942,256.182007 218.927521,269.168213 225.504318,281.149200 
	C234.546494,297.621429 244.151276,313.808502 254.110245,329.745789 
	C261.210480,341.108215 273.286041,343.724304 284.533630,337.390503 
	C295.260040,331.350250 299.222351,319.374023 294.071167,307.677826 
	C292.135162,303.281952 289.580322,299.153107 287.227173,294.947510 
	C279.511871,281.158417 271.453217,267.551056 264.104279,253.570190 
	C256.088898,238.321503 263.156097,227.194107 280.494843,226.973434 
	C282.827179,226.943756 285.161011,227.007767 287.492798,226.961334 
	C305.975616,226.593231 324.458099,226.208862 343.799774,225.710083 
M188.790207,124.768066 
	C179.861511,109.384148 171.061081,93.923187 161.903305,78.676865 
	C159.908005,75.355003 157.039062,72.223572 153.871857,70.004349 
	C145.313660,64.007713 133.835388,65.049728 126.171738,71.924347 
	C118.491585,78.813766 116.264740,90.593369 121.486427,100.288788 
	C127.789650,111.992409 134.670471,123.383759 141.216751,134.958084 
	C145.060379,141.753891 149.202972,148.435211 152.383423,155.538605 
	C157.066193,165.997345 151.977158,175.970322 140.842773,178.673462 
	C136.687378,179.682281 132.273285,179.928375 127.971107,179.975891 
	C111.321106,180.159836 94.667358,180.011215 78.017548,180.204742 
	C64.639305,180.360229 54.920551,187.662888 52.952599,198.639114 
	C50.169407,214.162308 60.837395,226.402710 78.031471,226.761978 
	C94.343109,227.102798 110.670532,227.087723 126.984222,226.818390 
	C143.305374,226.548920 156.260941,219.523865 164.831909,205.535492 
	C173.085464,192.065125 180.912674,178.327652 188.694794,164.576019 
	C195.987595,151.689072 195.812317,138.566406 188.790207,124.768066 
z"/>
<path fill="#9D4FDC" opacity="1.000000" stroke="none" 
	d="
M132.099579,338.182526 
	C118.095901,329.817230 114.480156,318.582092 122.298515,304.611115 
	C139.532211,273.815430 157.215469,243.269745 174.875931,212.714920 
	C198.784332,171.350342 222.804764,130.050323 246.887756,88.787170 
	C249.816055,83.769890 253.194534,78.969093 256.773590,74.387634 
	C263.928162,65.229233 274.916382,63.460991 284.866333,69.534698 
	C295.327850,75.920685 299.552551,87.070076 294.114105,97.370308 
	C283.315735,117.821907 272.064636,138.046509 260.541107,158.100876 
	C229.438828,212.227997 198.112778,266.226654 166.812378,320.239655 
	C164.484573,324.256561 161.972015,328.249756 158.993423,331.789520 
	C151.929321,340.184570 142.945984,342.239197 132.099579,338.182526 
z"/>
<path fill="#9D4FDC" opacity="1.000000" stroke="none" 
	d="
M343.370239,225.769806 
	C324.458099,226.208862 305.975616,226.593231 287.492798,226.961334 
	C285.161011,227.007767 282.827179,226.943756 280.494843,226.973434 
	C263.156097,227.194107 256.088898,238.321503 264.104279,253.570190 
	C271.453217,267.551056 279.511871,281.158417 287.227173,294.947510 
	C289.580322,299.153107 292.135162,303.281952 294.071167,307.677826 
	C299.222351,319.374023 295.260040,331.350250 284.533630,337.390503 
	C273.286041,343.724304 261.210480,341.108215 254.110245,329.745789 
	C244.151276,313.808502 234.546494,297.621429 225.504318,281.149200 
	C218.927521,269.168213 218.883942,256.182007 225.284882,244.185471 
	C233.658722,228.491348 242.690826,213.101364 252.276230,198.115585 
	C260.077698,185.918869 272.160309,180.216156 286.616425,180.116058 
	C303.776398,179.997192 320.939636,180.075684 338.099274,180.265167 
	C350.153168,180.398270 358.471130,186.721130 361.447662,197.562866 
	C364.065491,207.098083 360.369385,217.295303 352.085663,222.411682 
	C349.594818,223.950119 346.576477,224.634476 343.370239,225.769806 
z"/>
<path fill="#9D4FDC" opacity="1.000000" stroke="none" 
	d="
M188.934021,125.114174 
	C195.812317,138.566406 195.987595,151.689072 188.694794,164.576019 
	C180.912674,178.327652 173.085464,192.065125 164.831909,205.535492 
	C156.260941,219.523865 143.305374,226.548920 126.984222,226.818390 
	C110.670532,227.087723 94.343109,227.102798 78.031471,226.761978 
	C60.837395,226.402710 50.169407,214.162308 52.952599,198.639114 
	C54.920551,187.662888 64.639305,180.360229 78.017548,180.204742 
	C94.667358,180.011215 111.321106,180.159836 127.971107,179.975891 
	C132.273285,179.928375 136.687378,179.682281 140.842773,178.673462 
	C151.977158,175.970322 157.066193,165.997345 152.383423,155.538605 
	C149.202972,148.435211 145.060379,141.753891 141.216751,134.958084 
	C134.670471,123.383759 127.789650,111.992409 121.486427,100.288788 
	C116.264740,90.593369 118.491585,78.813766 126.171738,71.924347 
	C133.835388,65.049728 145.313660,64.007713 153.871857,70.004349 
	C157.039062,72.223572 159.908005,75.355003 161.903305,78.676865 
	C171.061081,93.923187 179.861511,109.384148 188.934021,125.114174 
z"/>
</svg>