<svg width="59" height="40" viewBox="0 0 59 40" fill="none" xmlns="http://www.w3.org/2000/svg">
<path d="M8.50072 3.1218e-05C8.18533 0.0022982 7.87091 0.12758 7.64121 0.377841C2.89591 5.54265 0 12.4333 0 20.0003C0 27.5674 2.89591 34.458 7.64121 39.6228C8.10062 40.1234 8.89444 40.1217 9.37441 39.6417L11.9482 37.0679C12.4113 36.6049 12.4084 35.8679 11.9695 35.3819C8.28811 31.3076 6.04496 25.9111 6.04496 20.0003C6.04496 14.0896 8.28811 8.69306 11.9695 4.61876C12.4084 4.13274 12.4113 3.39703 11.9482 2.93278L9.37441 0.358951C9.13442 0.118966 8.81612 -0.00223564 8.50072 3.1218e-05ZM49.5309 3.1218e-05C49.2152 -0.00193339 48.8972 0.118966 48.6572 0.358951L46.081 2.93514C45.618 3.39819 45.6209 4.13274 46.0597 4.61876C49.7423 8.69185 51.9866 14.0896 51.9866 20.0003C51.9866 25.9111 49.7435 31.3076 46.0621 35.3819C45.6232 35.8679 45.6203 36.6037 46.0834 37.0679L48.6572 39.6417C49.1372 40.1217 49.931 40.1222 50.3904 39.6228C55.1357 34.458 58.0316 27.5674 58.0316 20.0003C58.0316 12.4333 55.1357 5.54265 50.3904 0.377841C50.1607 0.12758 49.8466 0.00199595 49.5309 3.1218e-05ZM41.8613 7.71444C41.5351 7.69827 41.2019 7.8142 40.9499 8.06627L38.3737 10.6425C37.9397 11.0765 37.8922 11.7755 38.2863 12.2458C40.0466 14.347 41.1057 17.0516 41.1057 20.0003C41.1057 22.9491 40.0466 25.6525 38.2863 27.7525C37.8922 28.2228 37.9397 28.9218 38.3737 29.3559L40.9499 31.9344C41.454 32.4386 42.2754 32.3933 42.7421 31.8541C45.4889 28.6757 47.1507 24.5316 47.1507 20.0003C47.1507 15.469 45.4889 11.325 42.7421 8.14656C42.5088 7.87695 42.1876 7.73061 41.8613 7.71444ZM16.1703 7.7168C15.844 7.73297 15.5228 7.87931 15.2895 8.14892C12.5427 11.3261 10.8809 15.469 10.8809 20.0003C10.8809 24.5316 12.5427 28.6757 15.2895 31.8541C15.7562 32.3933 16.5776 32.4386 17.0817 31.9344L19.6579 29.3582C20.0919 28.9242 20.1394 28.2252 19.7453 27.7549C17.985 25.6537 16.9259 22.9491 16.9259 20.0003C16.9259 17.0516 17.985 14.3482 19.7453 12.2482C20.1394 11.7779 20.0919 11.0789 19.6579 10.6448L17.0817 8.06627C16.8297 7.8142 16.4965 7.70063 16.1703 7.7168ZM29.0158 12.7464C25.0092 12.7464 21.7618 15.9937 21.7618 20.0003C21.7618 24.0069 25.0092 27.2543 29.0158 27.2543C33.0224 27.2543 36.2697 24.0069 36.2697 20.0003C36.2697 15.9937 33.0224 12.7464 29.0158 12.7464Z" fill="#EBEBEB"/>
</svg>
